<svg width="103" height="36" viewBox="0 0 103 36" fill="none" xmlns="http://www.w3.org/2000/svg">
<rect width="36" height="36" fill="#E1FF00"/>
<path fill-rule="evenodd" clip-rule="evenodd" d="M16.961 20.7016L14.3991 26L5.99976 10.1024H11.1561L16.961 20.7016ZM13.2007 10.0006L17.8889 19.2557L22.7347 10.0006H13.2007ZM21.687 25.7337L19.1515 20.4899L24.8966 10H29.9998L21.687 25.7337Z" fill="#211F22"/>
<path d="M76.337 11.9429V10H89.3845V11.9429H83.8908V26H81.8307V11.9429H76.337Z" fill="#E1FF00"/>
<path d="M41.9998 10.0004H44.1743L47.1501 24.0575H47.7223L50.6981 10.0004H54.0172L56.9929 24.0575H57.5652L60.5409 10.0004H62.7155L59.1675 26.0004H55.505L52.6438 11.9432H52.0715L49.2102 26.0004H45.5478L41.9998 10.0004Z" fill="#E1FF00"/>
<path fill-rule="evenodd" clip-rule="evenodd" d="M66.8429 10L62.7227 26H64.7828L65.4043 23.687H65.3882L66.6723 18.6901H66.678L66.7023 18.5974L68.4452 11.9429H71.5354L73.4811 19.3714H68.8298L68.4068 21.3143H73.9389L75.1979 26H77.258L73.1377 10H66.8429Z" fill="#E1FF00"/>
<path fill-rule="evenodd" clip-rule="evenodd" d="M92.5846 10L88.4644 26H90.5245L91.6989 21.629L92.2791 19.3714H92.2413L94.1869 11.9429H97.2771L99.2228 19.3714H94.6116L94.1887 21.3143H99.6806L100.94 26H103L98.8794 10H92.5846Z" fill="#E1FF00"/>
</svg>
