<svg width="295" height="56" viewBox="0 0 295 56" fill="none" xmlns="http://www.w3.org/2000/svg">
<path d="M0 8C0 3.58172 3.58172 0 8 0H287C291.418 0 295 3.58172 295 8V48C295 52.4183 291.418 56 287 56H7.99999C3.58172 56 0 52.4183 0 48V8Z" fill="black"/>
<path d="M72.868 31.656C71.7693 30.536 71.22 29.1173 71.22 27.4C71.22 25.6827 71.7693 24.2693 72.868 23.16C73.9773 22.04 75.3747 21.48 77.06 21.48C78.7453 21.48 80.1373 22.04 81.236 23.16C82.3453 24.2693 82.9 25.6827 82.9 27.4C82.9 29.1173 82.3453 30.536 81.236 31.656C80.1373 32.7653 78.7453 33.32 77.06 33.32C75.3747 33.32 73.9773 32.7653 72.868 31.656ZM73.892 24.104C73.0707 24.9467 72.66 26.0453 72.66 27.4C72.66 28.7547 73.0707 29.8533 73.892 30.696C74.7133 31.5387 75.7693 31.96 77.06 31.96C78.3507 31.96 79.4067 31.5387 80.228 30.696C81.0493 29.8533 81.46 28.7547 81.46 27.4C81.46 26.0453 81.0493 24.9467 80.228 24.104C79.4067 23.2613 78.3507 22.84 77.06 22.84C75.7693 22.84 74.7133 23.2613 73.892 24.104ZM84.745 33V25H91.705V33H90.425V26.2H86.025V33H84.745ZM92.9881 33L95.2281 25H98.5881L100.828 33H99.4681L97.6281 26.2H96.1881L94.3481 33H92.9881ZM102.744 31.976C101.998 31.176 101.624 30.184 101.624 29C101.624 27.816 101.998 26.8293 102.744 26.04C103.491 25.24 104.398 24.84 105.464 24.84C106.136 24.84 106.702 24.968 107.16 25.224C107.63 25.48 107.971 25.7573 108.184 26.056L108.328 26.296H108.344V25H109.624V33H108.344V31.72H108.328L108.184 31.944C107.992 32.232 107.662 32.5093 107.192 32.776C106.723 33.032 106.147 33.16 105.464 33.16C104.398 33.16 103.491 32.7653 102.744 31.976ZM103.672 26.872C103.16 27.4267 102.904 28.136 102.904 29C102.904 29.864 103.16 30.5733 103.672 31.128C104.195 31.6827 104.846 31.96 105.624 31.96C106.403 31.96 107.048 31.6827 107.56 31.128C108.083 30.5733 108.344 29.864 108.344 29C108.344 28.136 108.083 27.4267 107.56 26.872C107.048 26.3173 106.403 26.04 105.624 26.04C104.846 26.04 104.195 26.3173 103.672 26.872ZM110.83 26.2V25H117.71V26.2H114.91V33H113.63V26.2H110.83ZM118.917 33V25H120.197V31L120.181 31.16H120.213L124.517 25H125.957V33H124.677V27L124.693 26.84H124.661L120.357 33H118.917ZM127.158 26.2V25H134.038V26.2H131.238V33H129.958V26.2H127.158ZM135.245 33V25H136.525V27.72H138.765C139.661 27.72 140.392 27.976 140.957 28.488C141.522 28.9893 141.805 29.6133 141.805 30.36C141.805 31.1067 141.522 31.736 140.957 32.248C140.392 32.7493 139.661 33 138.765 33H135.245ZM136.525 31.8H138.765C139.32 31.8 139.752 31.6667 140.061 31.4C140.37 31.1333 140.525 30.7867 140.525 30.36C140.525 29.9333 140.37 29.5867 140.061 29.32C139.752 29.0533 139.32 28.92 138.765 28.92H136.525V31.8Z" fill="white"/>
<g clip-path="url(#clip0_1_431)">
<path d="M152.5 17.8363L156.86 25.6288V30.382L152.505 38.1592L152.5 17.8363Z" fill="#5B57A2"/>
<path d="M169.239 22.7927L173.324 20.2889L181.684 20.2811L169.239 27.9054V22.7927Z" fill="#D90751"/>
<path d="M169.216 17.7901L169.239 28.1071L164.869 25.4221V10L169.216 17.7901Z" fill="#FAB718"/>
<path d="M181.684 20.2813L173.324 20.2891L169.216 17.7901L164.869 10L181.684 20.2813Z" fill="#ED6F26"/>
<path d="M169.239 38.2024V33.1968L164.869 30.5629L164.872 46.0002L169.239 38.2024Z" fill="#63B22F"/>
<path d="M173.314 35.7214L156.859 25.6288L152.5 17.8363L181.667 35.7112L173.314 35.7214Z" fill="#1487C9"/>
<path d="M164.872 46.0003L169.239 38.2024L173.314 35.7213L181.667 35.7112L164.872 46.0003Z" fill="#017F36"/>
<path d="M152.505 38.1587L164.905 30.5627L160.736 28.0049L156.86 30.3815L152.505 38.1587Z" fill="#984995"/>
<path fill-rule="evenodd" clip-rule="evenodd" d="M202.327 34C205.462 34 207.79 32.0794 207.79 29.1678C207.79 26.3494 206.072 24.5198 203.201 24.5198C201.877 24.5198 200.784 24.9856 199.96 25.7896C200.157 24.128 201.563 22.9146 203.112 22.9146C203.469 22.9146 206.159 22.909 206.159 22.909L207.681 20C207.681 20 204.303 20.077 202.733 20.077C199.145 20.1393 196.722 23.3976 196.722 27.355C196.722 31.9659 199.085 34 202.327 34ZM202.346 27.0964C203.51 27.0964 204.317 27.8606 204.317 29.1674C204.317 30.3434 203.6 31.3125 202.346 31.3151C201.146 31.3151 200.339 30.4171 200.339 29.1873C200.339 27.8803 201.146 27.0964 202.346 27.0964ZM219.895 23.8501V33.6497H216.393V26.7754H213.021V33.6497H209.519V23.8495L219.895 23.8501ZM191.809 30.9354C193.045 30.8454 193.871 30.3688 193.871 30.3688L195.167 32.7647C194.337 33.2974 192.976 33.6438 191.988 33.6804C188.457 33.7452 186 31.5979 186 28.4693C186 25.3803 188.614 23.1818 191.988 23.1818C193.326 23.1818 194.475 23.5402 195.338 24.1939C195.157 24.5156 194.91 24.9611 194.675 25.3874L194.299 26.0718L193.957 26.6968C193.957 26.6968 192.713 26.0457 191.773 26.0457C190.24 26.0457 189.124 26.9359 189.124 28.4889C189.124 30.0814 190.389 30.9775 191.809 30.9354Z" fill="white"/>
</g>
<defs>
<clipPath id="clip0_1_431">
<rect width="72" height="36" fill="white" transform="translate(152.5 10)"/>
</clipPath>
</defs>
</svg>
