<svg width="440" height="56" viewBox="0 0 440 56" fill="none" xmlns="http://www.w3.org/2000/svg">
<rect width="440" height="56" rx="8" fill="white"/>
<path d="M145.368 31.656C144.269 30.536 143.72 29.1173 143.72 27.4C143.72 25.6827 144.269 24.2693 145.368 23.16C146.477 22.04 147.875 21.48 149.56 21.48C151.245 21.48 152.637 22.04 153.736 23.16C154.845 24.2693 155.4 25.6827 155.4 27.4C155.4 29.1173 154.845 30.536 153.736 31.656C152.637 32.7653 151.245 33.32 149.56 33.32C147.875 33.32 146.477 32.7653 145.368 31.656ZM146.392 24.104C145.571 24.9467 145.16 26.0453 145.16 27.4C145.16 28.7547 145.571 29.8533 146.392 30.696C147.213 31.5387 148.269 31.96 149.56 31.96C150.851 31.96 151.907 31.5387 152.728 30.696C153.549 29.8533 153.96 28.7547 153.96 27.4C153.96 26.0453 153.549 24.9467 152.728 24.104C151.907 23.2613 150.851 22.84 149.56 22.84C148.269 22.84 147.213 23.2613 146.392 24.104ZM157.245 33V25H164.205V33H162.925V26.2H158.525V33H157.245ZM165.488 33L167.728 25H171.088L173.328 33H171.968L170.128 26.2H168.688L166.848 33H165.488ZM175.244 31.976C174.498 31.176 174.124 30.184 174.124 29C174.124 27.816 174.498 26.8293 175.244 26.04C175.991 25.24 176.898 24.84 177.964 24.84C178.636 24.84 179.202 24.968 179.66 25.224C180.13 25.48 180.471 25.7573 180.684 26.056L180.828 26.296H180.844V25H182.124V33H180.844V31.72H180.828L180.684 31.944C180.492 32.232 180.162 32.5093 179.692 32.776C179.223 33.032 178.647 33.16 177.964 33.16C176.898 33.16 175.991 32.7653 175.244 31.976ZM176.172 26.872C175.66 27.4267 175.404 28.136 175.404 29C175.404 29.864 175.66 30.5733 176.172 31.128C176.695 31.6827 177.346 31.96 178.124 31.96C178.903 31.96 179.548 31.6827 180.06 31.128C180.583 30.5733 180.844 29.864 180.844 29C180.844 28.136 180.583 27.4267 180.06 26.872C179.548 26.3173 178.903 26.04 178.124 26.04C177.346 26.04 176.695 26.3173 176.172 26.872ZM183.33 26.2V25H190.21V26.2H187.41V33H186.13V26.2H183.33ZM191.417 33V25H192.697V31L192.681 31.16H192.713L197.017 25H198.457V33H197.177V27L197.193 26.84H197.161L192.857 33H191.417ZM199.658 26.2V25H206.538V26.2H203.738V33H202.458V26.2H199.658ZM207.745 33V25H209.025V27.72H211.265C212.161 27.72 212.892 27.976 213.457 28.488C214.022 28.9893 214.305 29.6133 214.305 30.36C214.305 31.1067 214.022 31.736 213.457 32.248C212.892 32.7493 212.161 33 211.265 33H207.745ZM209.025 31.8H211.265C211.82 31.8 212.252 31.6667 212.561 31.4C212.87 31.1333 213.025 30.7867 213.025 30.36C213.025 29.9333 212.87 29.5867 212.561 29.32C212.252 29.0533 211.82 28.92 211.265 28.92H209.025V31.8Z" fill="#211F22"/>
<g clip-path="url(#clip0_3036_9767)">
<path d="M225 17.8364L229.36 25.6289V30.3821L225.005 38.1592L225 17.8364Z" fill="#5B57A2"/>
<path d="M241.739 22.7926L245.824 20.2888L254.184 20.2811L241.739 27.9053V22.7926Z" fill="#D90751"/>
<path d="M241.716 17.7901L241.739 28.1071L237.369 25.4221V10L241.716 17.7901Z" fill="#FAB718"/>
<path d="M254.185 20.2813L245.824 20.2891L241.716 17.7901L237.369 10L254.185 20.2813Z" fill="#ED6F26"/>
<path d="M241.739 38.2024V33.1969L237.369 30.5629L237.372 46.0003L241.739 38.2024Z" fill="#63B22F"/>
<path d="M245.814 35.7215L229.359 25.6289L225 17.8364L254.167 35.7112L245.814 35.7215Z" fill="#1487C9"/>
<path d="M237.372 46.0003L241.739 38.2024L245.814 35.7213L254.167 35.7112L237.372 46.0003Z" fill="#017F36"/>
<path d="M225.005 38.1587L237.405 30.5627L233.236 28.0049L229.36 30.3815L225.005 38.1587Z" fill="#984995"/>
<path fill-rule="evenodd" clip-rule="evenodd" d="M274.827 34C277.962 34 280.29 32.0794 280.29 29.1678C280.29 26.3494 278.572 24.5198 275.701 24.5198C274.377 24.5198 273.284 24.9856 272.46 25.7896C272.657 24.128 274.063 22.9146 275.612 22.9146C275.969 22.9146 278.659 22.909 278.659 22.909L280.181 20C280.181 20 276.803 20.077 275.233 20.077C271.645 20.1393 269.222 23.3976 269.222 27.355C269.222 31.9659 271.585 34 274.827 34ZM274.846 27.0964C276.01 27.0964 276.817 27.8606 276.817 29.1674C276.817 30.3434 276.1 31.3125 274.846 31.3151C273.646 31.3151 272.839 30.4171 272.839 29.1873C272.839 27.8803 273.646 27.0964 274.846 27.0964ZM292.395 23.8501V33.6497H288.893V26.7754H285.521V33.6497H282.019V23.8495L292.395 23.8501ZM264.309 30.9354C265.545 30.8454 266.371 30.3688 266.371 30.3688L267.667 32.7647C266.837 33.2974 265.476 33.6438 264.488 33.6804C260.957 33.7452 258.5 31.5979 258.5 28.4693C258.5 25.3803 261.114 23.1818 264.488 23.1818C265.826 23.1818 266.975 23.5402 267.838 24.1939C267.657 24.5156 267.41 24.9611 267.175 25.3874L266.799 26.0718L266.457 26.6968C266.457 26.6968 265.213 26.0457 264.273 26.0457C262.74 26.0457 261.624 26.9359 261.624 28.4889C261.624 30.0814 262.889 30.9775 264.309 30.9354Z" fill="#211F22"/>
</g>
<defs>
<clipPath id="clip0_3036_9767">
<rect width="72" height="36" fill="white" transform="translate(225 10)"/>
</clipPath>
</defs>
</svg>
