<svg width="29" height="10" viewBox="0 0 29 10" fill="none" xmlns="http://www.w3.org/2000/svg">
<path d="M21.0223 0.717904C20.5749 0.535095 19.8653 0.333252 18.9879 0.333252C16.748 0.333252 15.1706 1.56347 15.1609 3.32232C15.1423 4.61999 16.2903 5.34075 17.1488 5.77344C18.0264 6.21558 18.3247 6.50416 18.3247 6.89827C18.3157 7.50354 17.6156 7.78254 16.9625 7.78254C16.057 7.78254 15.5717 7.6387 14.8344 7.30195L14.5357 7.1576L14.2183 9.18574C14.7503 9.43536 15.7304 9.65688 16.748 9.66658C19.1279 9.66658 20.6773 8.4554 20.6957 6.58107C20.7047 5.55256 20.0986 4.76448 18.7918 4.1205C17.9985 3.7071 17.5126 3.42835 17.5126 3.00538C17.5219 2.62085 17.9235 2.227 18.8191 2.227C19.5564 2.20771 20.0982 2.39026 20.5086 2.57295L20.7138 2.66888L21.0223 0.717904Z" fill="#0085FF"/>
<path d="M12.7998 9.53193H10.5316L11.9503 0.49703H14.2184L12.7998 9.53193Z" fill="#0085FF"/>
<path fill-rule="evenodd" clip-rule="evenodd" d="M26.8367 0.49703H25.0822C24.5412 0.49703 24.1301 0.660292 23.8967 1.24666L20.5276 9.53181H22.9075C22.9075 9.53181 23.2994 8.41669 23.3836 8.17652H26.2958C26.3609 8.49372 26.5664 9.53181 26.5664 9.53181H28.6665L26.8367 0.49703ZM24.0369 6.33119C24.2237 5.81215 24.9424 3.8033 24.9424 3.8033C24.9386 3.81109 24.9683 3.72635 25.0124 3.6004L25.0127 3.59956C25.0778 3.41367 25.1742 3.13849 25.2409 2.93831L25.3994 3.71681C25.3994 3.71681 25.8289 5.87947 25.9222 6.33119H24.0369Z" fill="#0085FF"/>
<path d="M8.63713 0.49703L6.41582 6.65798L6.17309 5.40847L6.17287 5.4077L5.37977 1.2565C5.24916 0.679455 4.84779 0.516064 4.35315 0.49703H0.703838L0.666504 0.679583C1.55656 0.914004 2.35263 1.2518 3.05015 1.67182L5.07179 9.52237H7.47035L11.0356 0.49703H8.63713Z" fill="#0085FF"/>
</svg>
