<svg width="34" height="24" viewBox="0 0 34 24" fill="none" xmlns="http://www.w3.org/2000/svg">
<path d="M9.79364 4.66754H15.4784C16.2719 4.66754 16.7655 5.33337 16.5803 6.15295L13.9337 17.8503C13.7469 18.667 12.9524 19.3334 12.1583 19.3334H6.47414C5.68171 19.3334 5.18704 18.667 5.37216 17.8503L8.01992 6.15295C8.20504 5.33337 8.99913 4.66754 9.79364 4.66754Z" fill="#E21836"/>
<path d="M15.005 4.66666H21.5423C22.3357 4.66666 21.978 5.33248 21.7913 6.15207L19.1451 17.8494C18.9594 18.6661 19.0173 19.3325 18.2223 19.3325H11.685C10.8899 19.3325 10.3979 18.6661 10.5847 17.8494L13.2307 6.15207C13.4186 5.33248 14.2111 4.66666 15.005 4.66666Z" fill="#00447C"/>
<path d="M21.2831 4.66666H26.9679C27.7625 4.66666 28.2561 5.33248 28.0694 6.15207L25.4232 17.8494C25.2364 18.6661 24.4413 19.3325 23.6468 19.3325H17.9647C17.1697 19.3325 16.6765 18.6661 16.8628 17.8494L19.5094 6.15207C19.6945 5.33248 20.4881 4.66666 21.2831 4.66666Z" fill="#007B84"/>
<path d="M11.2779 8.41528C10.6933 8.42141 10.5207 8.41528 10.4656 8.40187C10.4444 8.50556 10.0499 10.3788 10.0488 10.3804C9.96382 10.7594 9.90202 11.0295 9.6921 11.204C9.57294 11.3054 9.43383 11.3543 9.27254 11.3543C9.01329 11.3543 8.86226 11.2218 8.83691 10.9705L8.83206 10.8842C8.83206 10.8842 8.91104 10.3765 8.91104 10.3737C8.91104 10.3737 9.32506 8.6666 9.39919 8.44095C9.40307 8.42811 9.40417 8.42141 9.40514 8.41528C8.59927 8.42255 8.45642 8.41528 8.44658 8.40187C8.44118 8.42027 8.42122 8.5261 8.42122 8.5261L7.99848 10.4501L7.96217 10.6133L7.89192 11.147C7.89192 11.3054 7.92213 11.4346 7.98226 11.5439C8.17486 11.8903 8.72426 11.9422 9.03505 11.9422C9.43549 11.9422 9.81113 11.8547 10.065 11.6948C10.5056 11.4268 10.6209 11.0078 10.7237 10.6356L10.7714 10.4446C10.7714 10.4446 11.1978 8.67159 11.2703 8.44095C11.2731 8.42811 11.2742 8.42141 11.2779 8.41528ZM12.729 9.84555C12.6262 9.84555 12.4383 9.87122 12.2696 9.95637C12.2083 9.98875 12.1504 10.0261 12.0893 10.0634L12.1445 9.85838L12.1142 9.82387C11.7563 9.89846 11.6763 9.90845 11.3456 9.95637L11.3179 9.97535C11.2796 10.303 11.2455 10.5493 11.1032 11.1933C11.049 11.4307 10.9927 11.6703 10.9363 11.9071L10.9516 11.9372C11.2904 11.9188 11.3932 11.9188 11.6876 11.9238L11.7114 11.8971C11.7489 11.6998 11.7537 11.6536 11.8366 11.2541C11.8755 11.0647 11.9567 10.6484 11.9967 10.5002C12.0703 10.4652 12.1429 10.4306 12.2122 10.4306C12.3772 10.4306 12.3571 10.5788 12.3508 10.6379C12.3437 10.737 12.2836 11.0608 12.2219 11.3388L12.1808 11.5182C12.1521 11.6507 12.1206 11.7795 12.0919 11.9109L12.1044 11.9372C12.4383 11.9188 12.5402 11.9188 12.8253 11.9238L12.8589 11.8971C12.9104 11.589 12.9255 11.5065 13.017 11.058L13.063 10.8518C13.1523 10.4485 13.1972 10.2439 13.1296 10.0773C13.0581 9.89062 12.8866 9.84555 12.729 9.84555ZM14.3501 10.2679C14.1726 10.303 14.0594 10.3264 13.9469 10.3415C13.8353 10.3599 13.7266 10.3766 13.555 10.4011L13.5414 10.4138L13.529 10.4239C13.5111 10.5554 13.4986 10.6691 13.4749 10.8028C13.4548 10.941 13.4239 11.098 13.3737 11.3237C13.3347 11.4964 13.3146 11.5566 13.2925 11.6174C13.2708 11.6781 13.247 11.7372 13.2032 11.9071L13.2135 11.9227L13.2221 11.9371C13.3824 11.9293 13.4873 11.9237 13.5951 11.9227C13.7027 11.9187 13.8143 11.9227 13.9869 11.9237L14.002 11.911L14.0182 11.8971C14.0432 11.7439 14.0469 11.7027 14.0622 11.6279C14.0773 11.5478 14.1033 11.4368 14.1672 11.1404C14.1974 11.0012 14.2311 10.8624 14.2624 10.7203C14.2949 10.5788 14.329 10.4395 14.3615 10.3003L14.3566 10.2834L14.3501 10.2679ZM14.3539 9.69845C14.1926 9.60045 13.9095 9.63155 13.719 9.76691C13.529 9.89956 13.5074 10.0878 13.6681 10.1871C13.8266 10.2824 14.1108 10.254 14.2997 10.1175C14.4892 9.98201 14.5129 9.79544 14.3539 9.69845ZM15.3293 11.9679C15.6556 11.9679 15.9901 11.8753 16.2418 11.6006C16.4355 11.3778 16.5244 11.0463 16.5551 10.9098C16.6553 10.4573 16.5773 10.2461 16.4793 10.1174C16.3305 9.92131 16.0675 9.85841 15.7947 9.85841C15.6306 9.85841 15.2399 9.8751 14.9346 10.1648C14.7154 10.3738 14.6142 10.6573 14.5531 10.9292C14.4914 11.2062 14.4204 11.7048 14.8659 11.8904C15.0034 11.9512 15.2015 11.9679 15.3293 11.9679ZM15.3038 10.9499C15.379 10.6073 15.4678 10.3197 15.6945 10.3197C15.8722 10.3197 15.885 10.5337 15.8061 10.8774C15.7919 10.9537 15.7271 11.2374 15.6394 11.3582C15.5781 11.4474 15.5057 11.5014 15.4256 11.5014C15.4017 11.5014 15.26 11.5014 15.2578 11.2848C15.2567 11.1778 15.2779 11.0685 15.3038 10.9499ZM17.3708 11.9238L17.3963 11.8971C17.4325 11.6999 17.4384 11.6535 17.5185 11.2541C17.5586 11.0647 17.6414 10.6485 17.6804 10.5003C17.7541 10.4651 17.8254 10.4305 17.8969 10.4305C18.0609 10.4305 18.0409 10.5787 18.0344 10.6378C18.0284 10.7371 17.9683 11.0607 17.9055 11.3387L17.8666 11.5181C17.8368 11.6508 17.8044 11.7794 17.7757 11.911L17.7882 11.9372C18.1232 11.9188 18.2212 11.9188 18.508 11.9238L18.5426 11.8971C18.5929 11.5889 18.6065 11.5064 18.7007 11.058L18.7456 10.8517C18.8354 10.4484 18.8809 10.244 18.8144 10.0774C18.7408 9.89066 18.5681 9.84559 18.4128 9.84559C18.3099 9.84559 18.121 9.87112 17.9532 9.95642C17.8932 9.9888 17.8331 10.026 17.774 10.0634L17.8254 9.85843L17.7979 9.82377C17.4401 9.89851 17.3584 9.90849 17.0282 9.95642L17.0028 9.97539C16.9628 10.303 16.9302 10.5492 16.7879 11.1934C16.7337 11.4307 16.6775 11.6703 16.6212 11.9071L16.6363 11.9372C16.9756 11.9188 17.0769 11.9188 17.3708 11.9238ZM19.8324 11.9371C19.8535 11.8313 19.9786 11.204 19.9797 11.204C19.9797 11.204 20.0863 10.7437 20.0928 10.727C20.0928 10.727 20.1263 10.6791 20.1598 10.6601H20.2092C20.6746 10.6601 21.2002 10.6601 21.6121 10.3482C21.8924 10.1342 22.084 9.81827 22.1695 9.4343C22.1917 9.34016 22.2081 9.22819 22.2081 9.11622C22.2081 8.96916 22.1794 8.82367 22.0965 8.70999C21.8865 8.40746 21.4681 8.4019 20.9853 8.39962C20.9837 8.39962 20.7472 8.4019 20.7472 8.4019C20.1291 8.40974 19.8812 8.40746 19.7794 8.39462C19.7708 8.44098 19.7546 8.52342 19.7546 8.52342C19.7546 8.52342 19.5331 9.57979 19.5331 9.5815C19.5331 9.5815 19.0033 11.8274 18.9783 11.9333C19.518 11.9266 19.7393 11.9266 19.8324 11.9371ZM20.2427 10.0606C20.2427 10.0606 20.4781 9.00639 20.477 9.01038L20.4846 8.95632L20.488 8.9151L20.582 8.92509C20.582 8.92509 21.0676 8.96802 21.0789 8.96916C21.2705 9.04547 21.3495 9.24217 21.2944 9.49891C21.2441 9.73355 21.0962 9.93081 20.9063 10.0261C20.7498 10.1068 20.5582 10.1135 20.3608 10.1135H20.233L20.2427 10.0606ZM21.7085 10.9694C21.6462 11.2424 21.5747 11.7411 22.018 11.9188C22.1593 11.9807 22.286 11.9991 22.4147 11.9924C22.5506 11.9848 22.6766 11.9146 22.7933 11.8137C22.7827 11.8552 22.7722 11.8967 22.7617 11.9383L22.7817 11.965C23.1006 11.9512 23.1995 11.9512 23.5449 11.9539L23.5763 11.9293C23.6267 11.6241 23.6742 11.3277 23.8053 10.7437C23.8692 10.464 23.9329 10.187 23.9985 9.90846L23.9882 9.8778C23.6315 9.94583 23.5362 9.96038 23.1931 10.0104L23.1671 10.0323C23.1636 10.0607 23.16 10.0879 23.1567 10.1151C23.1033 10.0264 23.026 9.95068 22.9067 9.90347C22.7542 9.84171 22.3959 9.9213 22.0878 10.21C21.8714 10.4161 21.7675 10.6985 21.7085 10.9694ZM22.4575 10.9861C22.5339 10.6496 22.6216 10.3649 22.8488 10.3649C22.9925 10.3649 23.0682 10.5014 23.0528 10.7342C23.0406 10.7922 23.0274 10.8534 23.0118 10.9226C22.989 11.0226 22.9644 11.1217 22.9404 11.221C22.916 11.2889 22.8876 11.3529 22.8564 11.3956C22.798 11.4809 22.6588 11.5338 22.5788 11.5338C22.556 11.5338 22.4158 11.5338 22.411 11.321C22.4099 11.215 22.4311 11.1059 22.4575 10.9861ZM26.3692 9.87507L26.3416 9.84269C25.9887 9.91629 25.9248 9.92799 25.6006 9.97306L25.5767 9.9976C25.5756 10.0016 25.5747 10.0077 25.573 10.0133L25.5719 10.0077C25.3305 10.581 25.3376 10.4573 25.1411 10.9086C25.14 10.8881 25.14 10.8752 25.1389 10.8534L25.0897 9.87507L25.0588 9.84269C24.6891 9.91629 24.6804 9.92799 24.339 9.97306L24.3124 9.9976C24.3086 10.0093 24.3086 10.0221 24.3064 10.0361L24.3086 10.0411C24.3513 10.2656 24.341 10.2155 24.3839 10.5699C24.4038 10.7437 24.4304 10.9186 24.4504 11.0903C24.484 11.3777 24.5029 11.5192 24.544 11.9578C24.3135 12.3495 24.2589 12.4977 24.0369 12.8415L24.0384 12.8449L23.8821 13.0994C23.8643 13.1262 23.848 13.1446 23.8253 13.1524C23.8004 13.1651 23.768 13.1674 23.7229 13.1674H23.6363L23.5076 13.6081L23.9492 13.616C24.2084 13.6148 24.3714 13.49 24.4591 13.3223L24.7368 12.8325H24.7323L24.7616 12.798C24.9484 12.384 26.3692 9.87507 26.3692 9.87507ZM21.7084 15.6636H21.5211L22.2145 13.3028H22.4445L22.5175 13.0596L22.5246 13.3301C22.516 13.4972 22.6437 13.6454 22.9793 13.6209H23.3674L23.501 13.1663H23.355C23.271 13.1663 23.2321 13.1445 23.2369 13.0977L23.2298 12.8226H22.5111V12.824C22.2788 12.829 21.5848 12.847 21.4443 12.8855C21.2743 12.9306 21.0952 13.0632 21.0952 13.0632L21.1656 12.8197H20.4933L20.3532 13.3028L19.6505 15.6997H19.5142L19.3805 16.151H20.7195L20.6746 16.3015H21.3345L21.3783 16.151H21.5634L21.7084 15.6636ZM21.1591 13.7825C21.0514 13.8132 20.851 13.9062 20.851 13.9062L21.0292 13.3028H21.5634L21.4345 13.7424C21.4345 13.7424 21.2695 13.7524 21.1591 13.7825ZM21.1693 14.6445C21.1693 14.6445 21.0015 14.6661 20.8911 14.6918C20.7823 14.7258 20.5783 14.8327 20.5783 14.8327L20.7624 14.2049H21.2993L21.1693 14.6445ZM20.87 15.6692H20.3342L20.4895 15.1393H21.0237L20.87 15.6692ZM22.1604 14.2049H22.9327L22.8217 14.5749H22.0391L21.9216 14.9794H22.6064L22.0879 15.7309C22.0516 15.7861 22.019 15.8057 21.9829 15.8212C21.9466 15.8402 21.8989 15.8624 21.8438 15.8624H21.6538L21.5233 16.3055H22.0202C22.2784 16.3055 22.431 16.1845 22.5436 16.0258L22.8992 15.5248L22.9755 16.0335C22.9917 16.1287 23.0582 16.1845 23.1033 16.2062C23.153 16.2319 23.2044 16.2759 23.277 16.2825C23.3549 16.2859 23.4112 16.2886 23.4486 16.2886H23.6927L23.8393 15.7928H23.743C23.6877 15.7928 23.5925 15.7833 23.5763 15.7654C23.5601 15.7438 23.5601 15.7104 23.5514 15.6596L23.4739 15.1498H23.1568L23.2959 14.9794H24.0769L24.1971 14.5749H23.4739L23.5866 14.2049H24.3075L24.4412 13.7486H22.2919L22.1604 14.2049ZM15.6372 15.7722L15.8174 15.1549H16.5583L16.6937 14.6957H15.9521L16.0653 14.3157H16.79L16.9243 13.8711H15.1111L14.9796 14.3157H15.3915L15.2816 14.6957H14.8686L14.7317 15.1627H15.1435L14.9032 15.9794C14.8708 16.0876 14.9185 16.1288 14.9487 16.179C14.9796 16.2279 15.0109 16.2603 15.0813 16.2787C15.1539 16.2954 15.2036 16.3054 15.2712 16.3054H16.1065L16.2553 15.7967L15.8851 15.8491C15.8136 15.8491 15.6156 15.8402 15.6372 15.7722ZM15.7222 12.8169L15.5344 13.1663C15.4942 13.2426 15.4581 13.2899 15.4255 13.3117C15.3968 13.3301 15.34 13.3378 15.2577 13.3378H15.1597L15.0288 13.7847H15.3541C15.5106 13.7847 15.6307 13.7257 15.6881 13.6962C15.7497 13.6622 15.7659 13.6816 15.8136 13.6342L15.9235 13.5363H16.9394L17.0742 13.071H16.3306L16.4604 12.8169H15.7222ZM17.222 15.7812C17.2047 15.7555 17.2171 15.7103 17.2436 15.6161L17.5213 14.67H18.5091C18.6531 14.6679 18.757 14.6662 18.8246 14.6612C18.8972 14.6533 18.9762 14.6267 19.0622 14.5787C19.151 14.5285 19.1965 14.4756 19.2349 14.4149C19.2777 14.3542 19.3464 14.2216 19.4054 14.017L19.7545 12.8198L18.7294 12.8259C18.7294 12.8259 18.4138 12.8738 18.2748 12.9267C18.1346 12.9858 17.9342 13.1507 17.9342 13.1507L18.0268 12.8225H17.3935L16.507 15.8491C16.4756 15.9666 16.4545 16.0519 16.4497 16.1031C16.448 16.1583 16.5173 16.2129 16.5622 16.2541C16.6152 16.2954 16.6937 16.2887 16.7689 16.2954C16.848 16.3015 16.9605 16.3054 17.1159 16.3054H17.6025L17.7519 15.7862L17.3162 15.8285C17.2697 15.8285 17.236 15.8028 17.222 15.7812ZM17.7004 14.031H18.738L18.672 14.2438C18.6628 14.2488 18.6406 14.2333 18.535 14.2461H17.6366L17.7004 14.031ZM17.9083 13.3173H18.9546L18.8793 13.5736C18.8793 13.5736 18.3862 13.5686 18.3072 13.5836C17.9597 13.6455 17.7567 13.8366 17.7567 13.8366L17.9083 13.3173ZM18.6953 14.9565C18.6867 14.9883 18.6731 15.0077 18.6541 15.0222C18.633 15.0362 18.599 15.0412 18.5481 15.0412H18.4003L18.409 14.782H17.7941L17.7691 16.0491C17.7681 16.1405 17.7767 16.1934 17.8417 16.2358C17.9067 16.2887 18.1069 16.2954 18.3764 16.2954H18.7618L18.9009 15.8211L18.5654 15.8401L18.4539 15.8468C18.4386 15.8401 18.4241 15.834 18.4079 15.8173C18.3938 15.8029 18.3699 15.8117 18.3738 15.7203L18.3764 15.3955L18.7282 15.3805C18.9182 15.3805 18.9994 15.3169 19.0687 15.2563C19.1348 15.1983 19.1564 15.1315 19.1813 15.0412L19.2404 14.7537H18.7569L18.6953 14.9565Z" fill="#FEFEFE"/>
</svg>
