<svg width="34" height="24" viewBox="0 0 34 24" fill="none" xmlns="http://www.w3.org/2000/svg">
<path d="M23.0224 7.718C22.5751 7.53519 21.8655 7.33334 20.988 7.33334C18.7481 7.33334 17.1708 8.56357 17.1611 10.3224C17.1425 11.6201 18.2904 12.3408 19.149 12.7735C20.0265 13.2157 20.3248 13.5043 20.3248 13.8984C20.3159 14.5036 19.6157 14.7826 18.9627 14.7826C18.0571 14.7826 17.5719 14.6388 16.8345 14.302L16.5359 14.1577L16.2185 16.1858C16.7504 16.4355 17.7305 16.657 18.7481 16.6667C21.1281 16.6667 22.6775 15.4555 22.6959 13.5812C22.7049 12.5527 22.0988 11.7646 20.7919 11.1206C19.9986 10.7072 19.5128 10.4284 19.5128 10.0055C19.5221 9.62094 19.9237 9.22709 20.8192 9.22709C21.5566 9.2078 22.0984 9.39036 22.5088 9.57304L22.714 9.66898L23.0224 7.718Z" fill="white"/>
<path d="M14.8 16.532H12.5318L13.9505 7.49712H16.2186L14.8 16.532Z" fill="white"/>
<path fill-rule="evenodd" clip-rule="evenodd" d="M28.8368 7.49712H27.0824C26.5414 7.49712 26.1303 7.66038 25.8969 8.24675L22.5278 16.5319H24.9077C24.9077 16.5319 25.2995 15.4168 25.3838 15.1766H28.2959C28.361 15.4938 28.5666 16.5319 28.5666 16.5319H30.6667L28.8368 7.49712ZM26.037 13.3313C26.2238 12.8122 26.9426 10.8034 26.9426 10.8034C26.9388 10.8112 26.9685 10.7264 27.0126 10.6005L27.0129 10.5996C27.078 10.4138 27.1744 10.1386 27.241 9.9384L27.3995 10.7169C27.3995 10.7169 27.8291 12.8796 27.9223 13.3313H26.037Z" fill="white"/>
<path d="M10.6373 7.49712L8.41599 13.6581L8.17325 12.4086L8.17303 12.4078L7.37994 8.25659C7.24933 7.67955 6.84796 7.51616 6.35331 7.49712H2.70401L2.66667 7.67967C3.55672 7.9141 4.35279 8.2519 5.05032 8.67191L7.07196 16.5225H9.47052L13.0357 7.49712H10.6373Z" fill="white"/>
</svg>
