<svg width="49" height="48" viewBox="0 0 49 48" fill="none" xmlns="http://www.w3.org/2000/svg">
<path d="M1 6C1 2.96243 3.46243 0.5 6.5 0.5H42.5C45.5376 0.5 48 2.96243 48 6V42C48 45.0376 45.5376 47.5 42.5 47.5H6.5C3.46243 47.5 1 45.0376 1 42V6Z" fill="#4DB45E" fill-opacity="0.1"/>
<path d="M1 6C1 2.96243 3.46243 0.5 6.5 0.5H42.5C45.5376 0.5 48 2.96243 48 6V42C48 45.0376 45.5376 47.5 42.5 47.5H6.5C3.46243 47.5 1 45.0376 1 42V6Z" stroke="#4DB45E"/>
<path d="M15 23L21 17V22H28C30.76 22 33 24.24 33 27V31H31V27C31 25.35 29.65 24 28 24H21V29L15 23Z" fill="#4DB45E"/>
</svg>
