<svg width="20" height="20" viewBox="0 0 20 20" fill="none" xmlns="http://www.w3.org/2000/svg">
<g id="Icons/Close" clip-path="url(#clip0_1_2344)">
<path id="Vector" d="M15.2459 5.92913C15.5703 5.60466 15.5703 5.07859 15.2459 4.75413C14.9214 4.42966 14.3953 4.42966 14.0709 4.75413L10 8.82496L5.92919 4.75413C5.60472 4.42966 5.07865 4.42966 4.75419 4.75413C4.42972 5.07859 4.42972 5.60466 4.75419 5.92913L8.82502 9.99996L4.75419 14.0708C4.42972 14.3953 4.42972 14.9213 4.75419 15.2458C5.07865 15.5703 5.60472 15.5703 5.92919 15.2458L10 11.175L14.0709 15.2458C14.3953 15.5703 14.9214 15.5703 15.2459 15.2458C15.5703 14.9213 15.5703 14.3953 15.2459 14.0708L11.175 9.99996L15.2459 5.92913Z" fill="white" fill-opacity="0.75"/>
</g>
<defs>
<clipPath id="clip0_1_2344">
<rect width="20" height="20" fill="white"/>
</clipPath>
</defs>
</svg>
