<svg width="20" height="20" viewBox="0 0 20 20" fill="none" xmlns="http://www.w3.org/2000/svg">
<path d="M15.2457 5.92913C15.5701 5.60466 15.5701 5.07859 15.2457 4.75413C14.9212 4.42966 14.3951 4.42966 14.0707 4.75413L9.99984 8.82496L5.929 4.75413C5.60454 4.42966 5.07847 4.42966 4.754 4.75413C4.42954 5.07859 4.42954 5.60466 4.754 5.92913L8.82484 9.99996L4.754 14.0708C4.42954 14.3953 4.42954 14.9213 4.754 15.2458C5.07847 15.5703 5.60454 15.5703 5.929 15.2458L9.99984 11.175L14.0707 15.2458C14.3951 15.5703 14.9212 15.5703 15.2457 15.2458C15.5701 14.9213 15.5701 14.3953 15.2457 14.0708L11.1748 9.99996L15.2457 5.92913Z" fill="#211F22" fill-opacity="0.75"/>
</svg>
