<svg width="49" height="48" viewBox="0 0 49 48" fill="none" xmlns="http://www.w3.org/2000/svg">
<path d="M1 6C1 2.96243 3.46243 0.5 6.5 0.5H42.5C45.5376 0.5 48 2.96243 48 6V42C48 45.0376 45.5376 47.5 42.5 47.5H6.5C3.46243 47.5 1 45.0376 1 42V6Z" fill="#FF3B2F" fill-opacity="0.1"/>
<path d="M1 6C1 2.96243 3.46243 0.5 6.5 0.5H42.5C45.5376 0.5 48 2.96243 48 6V42C48 45.0376 45.5376 47.5 42.5 47.5H6.5C3.46243 47.5 1 45.0376 1 42V6Z" stroke="#FF3B2F"/>
<path d="M30.795 19.115C31.1844 18.7256 31.1844 18.0944 30.795 17.705C30.4056 17.3156 29.7744 17.3156 29.385 17.705L24.5 22.59L19.615 17.705C19.2256 17.3156 18.5944 17.3156 18.205 17.705C17.8156 18.0944 17.8156 18.7256 18.205 19.115L23.09 24L18.205 28.885C17.8156 29.2744 17.8156 29.9056 18.205 30.295C18.5944 30.6844 19.2256 30.6844 19.615 30.295L24.5 25.41L29.385 30.295C29.7744 30.6844 30.4056 30.6844 30.795 30.295C31.1844 29.9056 31.1844 29.2744 30.795 28.885L25.91 24L30.795 19.115Z" fill="#FF3B2F"/>
</svg>
