<svg width="34" height="24" viewBox="0 0 34 24" fill="none" xmlns="http://www.w3.org/2000/svg">
<g clip-path="url(#clip0_1_29)">
<path d="M20.5026 5.71109H13.4751V18.2889H20.5026V5.71109Z" fill="#FF5F00"/>
<path d="M13.9212 12C13.9212 9.55554 15.059 7.22221 16.9777 5.7111C13.4974 2.97777 8.43306 3.57777 5.68896 7.06665C2.96718 10.5333 3.56954 15.5555 7.07217 18.2889C9.99474 20.5778 14.0774 20.5778 17 18.2889C15.059 16.7778 13.9212 14.4444 13.9212 12Z" fill="#EB001B"/>
<path d="M29.9843 12C29.9843 16.4222 26.3924 20 21.9528 20C20.1457 20 18.4055 19.4 17 18.2889C20.4803 15.5555 21.0827 10.5333 18.3386 7.04443C17.937 6.55554 17.4908 6.08888 17 5.7111C20.4803 2.97777 25.5446 3.57777 28.2664 7.06665C29.3819 8.46665 29.9843 10.2 29.9843 12Z" fill="#F79E1B"/>
</g>
<defs>
<clipPath id="clip0_1_29">
<rect width="34" height="24" fill="white"/>
</clipPath>
</defs>
</svg>
