<svg width="34" height="24" viewBox="0 0 34 24" fill="none" xmlns="http://www.w3.org/2000/svg">
<g clip-path="url(#clip0_1_38)">
<path d="M10.6123 7.00195V7.00545C10.6088 7.00545 9.50852 7.00195 9.21511 8.05333C8.94615 9.01738 8.18818 11.6778 8.16723 11.7512H7.95765C7.95765 11.7512 7.18222 9.03135 6.90977 8.04984C6.61636 6.99846 5.51259 7.00195 5.51259 7.00195H3V14.9985H5.51375V10.2492H5.72333L7.19037 14.9984H8.93567L10.4027 10.2527H10.6123V14.9984H13.126V7.00195H10.6123ZM19.7952 7.00195C19.7952 7.00195 19.0582 7.06832 18.7124 7.8403L16.9322 11.7512H16.7226V7.00195H14.2089V14.9985H16.5829C16.5829 14.9985 17.3548 14.9286 17.7007 14.1602L19.446 10.2492H19.6556V14.9985H22.1693V7.00195H19.7952ZM23.287 10.6334V14.9985H25.8008V12.4498H28.5241C29.7117 12.4498 30.7165 11.6918 31.0903 10.6346H23.287V10.6334Z" fill="#4DB45E"/>
<path d="M28.5253 7.00174H22.9342C23.2137 8.52466 24.3558 9.74603 25.8322 10.1442C26.1749 10.2371 26.5284 10.284 26.8835 10.284H31.1927C31.2311 10.1023 31.2486 9.91722 31.2486 9.72511C31.2486 8.22078 30.0295 7.00174 28.5253 7.00174Z" fill="url(#paint0_linear_1_38)"/>
</g>
<defs>
<linearGradient id="paint0_linear_1_38" x1="22.9342" y1="8.64285" x2="31.2486" y2="8.64285" gradientUnits="userSpaceOnUse">
<stop offset="0.3" stop-color="#00B4E6"/>
<stop offset="1" stop-color="#088CCB"/>
</linearGradient>
<clipPath id="clip0_1_38">
<rect width="28.2486" height="8" fill="white" transform="translate(3 7)"/>
</clipPath>
</defs>
</svg>
