<svg width="96" height="48" viewBox="0 0 96 48" fill="none" xmlns="http://www.w3.org/2000/svg">
<g clip-path="url(#clip0_502_1700)">
<path d="M0 10.4485L5.81279 20.8385V27.1761L0.0068 37.5456L0 10.4485Z" fill="#5B57A2"/>
<path d="M22.3186 17.0569L27.7655 13.7185L38.9126 13.7081L22.3186 23.8738V17.0569Z" fill="#D90751"/>
<path d="M22.2882 10.3868L22.3189 24.1428L16.4926 20.5628V0L22.2882 10.3868Z" fill="#FAB718"/>
<path d="M38.9129 13.7084L27.7654 13.7188L22.2882 10.3868L16.4926 0L38.9129 13.7084Z" fill="#ED6F26"/>
<path d="M22.3189 37.6032V30.9292L16.4926 27.4172L16.4957 48.0004L22.3189 37.6032Z" fill="#63B22F"/>
<path d="M27.752 34.2953L5.8124 20.8385L0 10.4485L38.8891 34.2816L27.752 34.2953Z" fill="#1487C9"/>
<path d="M16.4962 48.0004L22.3186 37.6032L27.7518 34.2952L38.889 34.2816L16.4962 48.0004Z" fill="#017F36"/>
<path d="M0.00708008 37.5449L16.5403 27.4169L10.9819 24.0065L5.81307 27.1753L0.00708008 37.5449Z" fill="#984995"/>
<path fill-rule="evenodd" clip-rule="evenodd" d="M66.4356 32C70.6154 32 73.7193 29.4392 73.7193 25.557C73.7193 21.7993 71.4294 19.3598 67.6019 19.3598C65.8356 19.3598 64.378 19.9808 63.2802 21.0529C63.5423 18.8374 65.4174 17.2195 67.482 17.2195C67.9585 17.2195 71.5456 17.2121 71.5456 17.2121L73.5742 13.3334C73.5742 13.3334 69.0706 13.436 66.9771 13.436C62.1936 13.5191 58.9626 17.8636 58.9626 23.1401C58.9626 29.2879 62.1138 32 66.4356 32ZM66.461 22.7953C68.013 22.7953 69.0887 23.8142 69.0887 25.5566C69.0887 27.1246 68.1329 28.4167 66.461 28.4201C64.8616 28.4201 63.7857 27.2228 63.7857 25.5831C63.7857 23.8404 64.8616 22.7953 66.461 22.7953ZM89.8596 18.4668V31.5329H85.1903V22.3673H80.6943V31.5329H76.025V18.466L89.8596 18.4668ZM52.4122 27.9139C54.0593 27.7939 55.1618 27.1584 55.1618 27.1584L56.8898 30.353C55.7832 31.0633 53.9674 31.5251 52.6511 31.5739C47.9422 31.6604 44.6666 28.7972 44.6666 24.6258C44.6666 20.5071 48.1516 17.5757 52.6511 17.5757C54.434 17.5757 55.9669 18.0536 57.1177 18.9253C56.8755 19.3541 56.5462 19.9482 56.2332 20.5166L55.732 21.4291L55.2761 22.2624C55.2761 22.2624 53.618 21.3943 52.3646 21.3943C50.3205 21.3943 48.8319 22.5813 48.8319 24.6519C48.8319 26.7752 50.5188 27.97 52.4122 27.9139Z" fill="white"/>
</g>
<defs>
<clipPath id="clip0_502_1700">
<rect width="96" height="48" fill="white"/>
</clipPath>
</defs>
</svg>
