<svg width="149" height="36" viewBox="0 0 149 36" fill="none" xmlns="http://www.w3.org/2000/svg">
<path d="M1.648 21.656C0.549333 20.536 0 19.1173 0 17.4C0 15.6827 0.549333 14.2693 1.648 13.16C2.75733 12.04 4.15467 11.48 5.84 11.48C7.52533 11.48 8.91733 12.04 10.016 13.16C11.1253 14.2693 11.68 15.6827 11.68 17.4C11.68 19.1173 11.1253 20.536 10.016 21.656C8.91733 22.7653 7.52533 23.32 5.84 23.32C4.15467 23.32 2.75733 22.7653 1.648 21.656ZM2.672 14.104C1.85067 14.9467 1.44 16.0453 1.44 17.4C1.44 18.7547 1.85067 19.8533 2.672 20.696C3.49333 21.5387 4.54933 21.96 5.84 21.96C7.13067 21.96 8.18667 21.5387 9.008 20.696C9.82933 19.8533 10.24 18.7547 10.24 17.4C10.24 16.0453 9.82933 14.9467 9.008 14.104C8.18667 13.2613 7.13067 12.84 5.84 12.84C4.54933 12.84 3.49333 13.2613 2.672 14.104Z" fill="white"/>
<path d="M13.525 23V15H20.485V23H19.205V16.2H14.805V23H13.525Z" fill="white"/>
<path d="M21.7681 23L24.0081 15H27.3681L29.6081 23H28.2481L26.4081 16.2H24.9681L23.1281 23H21.7681Z" fill="white"/>
<path d="M31.5244 21.976C30.7777 21.176 30.4044 20.184 30.4044 19C30.4044 17.816 30.7777 16.8293 31.5244 16.04C32.271 15.24 33.1777 14.84 34.2444 14.84C34.9164 14.84 35.4817 14.968 35.9404 15.224C36.4097 15.48 36.751 15.7573 36.9644 16.056L37.1084 16.296H37.1244V15H38.4044V23H37.1244V21.72H37.1084L36.9644 21.944C36.7724 22.232 36.4417 22.5093 35.9724 22.776C35.503 23.032 34.927 23.16 34.2444 23.16C33.1777 23.16 32.271 22.7653 31.5244 21.976ZM32.4524 16.872C31.9404 17.4267 31.6844 18.136 31.6844 19C31.6844 19.864 31.9404 20.5733 32.4524 21.128C32.975 21.6827 33.6257 21.96 34.4044 21.96C35.183 21.96 35.8284 21.6827 36.3404 21.128C36.863 20.5733 37.1244 19.864 37.1244 19C37.1244 18.136 36.863 17.4267 36.3404 16.872C35.8284 16.3173 35.183 16.04 34.4044 16.04C33.6257 16.04 32.975 16.3173 32.4524 16.872Z" fill="white"/>
<path d="M39.61 16.2V15H46.49V16.2H43.69V23H42.41V16.2H39.61Z" fill="white"/>
<path d="M47.6969 23V15H48.9769V21L48.9609 21.16H48.9929L53.2969 15H54.7369V23H53.4569V17L53.4729 16.84H53.4409L49.1369 23H47.6969Z" fill="white"/>
<path d="M55.9381 16.2V15H62.8181V16.2H60.0181V23H58.7381V16.2H55.9381Z" fill="white"/>
<path d="M64.025 23V15H65.305V17.72H67.545C68.441 17.72 69.1717 17.976 69.737 18.488C70.3023 18.9893 70.585 19.6133 70.585 20.36C70.585 21.1067 70.3023 21.736 69.737 22.248C69.1717 22.7493 68.441 23 67.545 23H64.025ZM65.305 21.8H67.545C68.0997 21.8 68.5317 21.6667 68.841 21.4C69.1503 21.1333 69.305 20.7867 69.305 20.36C69.305 19.9333 69.1503 19.5867 68.841 19.32C68.5317 19.0533 68.0997 18.92 67.545 18.92H65.305V21.8Z" fill="white"/>
<path d="M81.28 7.83634L85.6396 15.6288V20.382L81.2851 28.1592L81.28 7.83634Z" fill="#5B57A2"/>
<path d="M98.0189 12.7927L102.104 10.2889L110.464 10.2811L98.0189 17.9053V12.7927Z" fill="#D90751"/>
<path d="M97.9961 7.79011L98.0191 18.1071L93.6494 15.4221V0L97.9961 7.79011Z" fill="#FAB718"/>
<path d="M110.464 10.2811L102.104 10.2889L97.9961 7.79011L93.6494 0L110.464 10.2811Z" fill="#ED6F26"/>
<path d="M98.0191 28.2024V23.1969L93.6494 20.5629L93.6518 36.0003L98.0191 28.2024Z" fill="#63B22F"/>
<path d="M102.094 25.7214L85.6396 15.6288L81.28 7.83634L110.447 25.7112L102.094 25.7214Z" fill="#1487C9"/>
<path d="M93.6518 36.0003L98.0191 28.2024L102.094 25.7214L110.447 25.7112L93.6518 36.0003Z" fill="#017F36"/>
<path d="M81.2851 28.1592L93.6852 20.5627L89.5164 18.0049L85.6396 20.382L81.2851 28.1592Z" fill="#984995"/>
<path fill-rule="evenodd" clip-rule="evenodd" d="M131.107 24C134.242 24 136.57 22.0794 136.57 19.1678C136.57 16.3494 134.852 14.5198 131.981 14.5198C130.657 14.5198 129.564 14.9856 128.74 15.7896C128.937 14.128 130.343 12.9146 131.892 12.9146C132.249 12.9146 134.939 12.909 134.939 12.909L136.461 10C136.461 10 133.083 10.077 131.513 10.077C127.925 10.1393 125.502 13.3976 125.502 17.355C125.502 21.9659 127.865 24 131.107 24ZM131.126 17.0964C132.29 17.0964 133.097 17.8606 133.097 19.1674C133.097 20.3434 132.38 21.3125 131.126 21.3151C129.926 21.3151 129.119 20.4171 129.119 19.1873C129.119 17.8803 129.926 17.0964 131.126 17.0964ZM148.675 13.8501V23.6497H145.173V16.7754H141.801V23.6497H138.299V13.8495L148.675 13.8501ZM120.589 20.9354C121.825 20.8454 122.651 20.3688 122.651 20.3688L123.947 22.7647C123.117 23.2974 121.756 23.6438 120.768 23.6804C117.237 23.7452 114.78 21.5979 114.78 18.4693C114.78 15.3803 117.394 13.1818 120.768 13.1818C122.106 13.1818 123.255 13.5402 124.118 14.1939C123.937 14.5156 123.69 14.9611 123.455 15.3874L123.079 16.0718L122.737 16.6968C122.737 16.6968 121.493 16.0457 120.553 16.0457C119.02 16.0457 117.904 16.9359 117.904 18.4889C117.904 20.0814 119.169 20.9775 120.589 20.9354Z" fill="white"/>
</svg>
